<svg xmlns="http://www.w3.org/2000/svg" viewBox="0 0 128 128" style="image-rendering: pixelated; image-rendering: crisp-edges;">
  <defs>
    <style>rect{ shape-rendering: crispEdges; }</style>
  </defs>
  <!-- 4 rows x 4 cols, each cell 32x32. Row 0=idle, 1=work, 2=celebrate, 3=sleep -->
  <!-- Row 0: Idle (4 frames, slight bounce) -->
  <g id="idle-0"><rect x="1" y="1" width="30" height="30" fill="none"/>
    <rect x="12" y="4" width="8" height="8" fill="#5d4e37"/><rect x="14" y="6" width="4" height="4" fill="#ffecb3"/>
    <rect x="10" y="12" width="12" height="14" fill="#6366f1"/><rect x="12" y="14" width="8" height="4" fill="#4f46e5"/>
    <rect x="10" y="26" width="6" height="6" fill="#374151"/><rect x="16" y="26" width="6" height="6" fill="#374151"/>
  </g>
  <g id="idle-1"><rect x="33" y="1" width="30" height="30" fill="none"/>
    <rect x="44" y="3" width="8" height="8" fill="#5d4e37"/><rect x="46" y="5" width="4" height="4" fill="#ffecb3"/>
    <rect x="42" y="11" width="12" height="14" fill="#6366f1"/><rect x="44" y="13" width="8" height="4" fill="#4f46e5"/>
    <rect x="42" y="25" width="6" height="6" fill="#374151"/><rect x="48" y="25" width="6" height="6" fill="#374151"/>
  </g>
  <g id="idle-2"><rect x="65" y="1" width="30" height="30" fill="none"/>
    <rect x="76" y="4" width="8" height="8" fill="#5d4e37"/><rect x="78" y="6" width="4" height="4" fill="#ffecb3"/>
    <rect x="74" y="12" width="12" height="14" fill="#6366f1"/><rect x="76" y="14" width="8" height="4" fill="#4f46e5"/>
    <rect x="74" y="26" width="6" height="6" fill="#374151"/><rect x="80" y="26" width="6" height="6" fill="#374151"/>
  </g>
  <g id="idle-3"><rect x="97" y="1" width="30" height="30" fill="none"/>
    <rect x="108" y="3" width="8" height="8" fill="#5d4e37"/><rect x="110" y="5" width="4" height="4" fill="#ffecb3"/>
    <rect x="106" y="11" width="12" height="14" fill="#6366f1"/><rect x="108" y="13" width="8" height="4" fill="#4f46e5"/>
    <rect x="106" y="25" width="6" height="6" fill="#374151"/><rect x="112" y="25" width="6" height="6" fill="#374151"/>
  </g>
  <!-- Row 1: Work (arm raised with tool) -->
  <g id="work-0"><rect x="1" y="33" width="30" height="30" fill="none"/>
    <rect x="12" y="36" width="8" height="8" fill="#5d4e37"/><rect x="14" y="38" width="4" height="4" fill="#ffecb3"/>
    <rect x="10" y="44" width="12" height="14" fill="#6366f1"/><rect x="12" y="46" width="8" height="4" fill="#4f46e5"/>
    <rect x="2" y="44" width="8" height="8" fill="#ffcc80"/><rect x="2" y="38" width="6" height="8" fill="#78716c"/>
    <rect x="10" y="58" width="6" height="6" fill="#374151"/><rect x="16" y="58" width="6" height="6" fill="#374151"/>
  </g>
  <g id="work-1"><rect x="33" y="33" width="30" height="30" fill="none"/>
    <rect x="44" y="36" width="8" height="8" fill="#5d4e37"/><rect x="46" y="38" width="4" height="4" fill="#ffecb3"/>
    <rect x="42" y="44" width="12" height="14" fill="#6366f1"/><rect x="44" y="46" width="8" height="4" fill="#4f46e5"/>
    <rect x="34" y="44" width="8" height="8" fill="#ffcc80"/><rect x="34" y="36" width="6" height="10" fill="#78716c"/>
    <rect x="42" y="58" width="6" height="6" fill="#374151"/><rect x="48" y="58" width="6" height="6" fill="#374151"/>
  </g>
  <g id="work-2"><rect x="65" y="33" width="30" height="30" fill="none"/>
    <rect x="76" y="36" width="8" height="8" fill="#5d4e37"/><rect x="78" y="38" width="4" height="4" fill="#ffecb3"/>
    <rect x="74" y="44" width="12" height="14" fill="#6366f1"/><rect x="76" y="46" width="8" height="4" fill="#4f46e5"/>
    <rect x="66" y="44" width="8" height="8" fill="#ffcc80"/><rect x="66" y="36" width="6" height="10" fill="#78716c"/>
    <rect x="74" y="58" width="6" height="6" fill="#374151"/><rect x="80" y="58" width="6" height="6" fill="#374151"/>
  </g>
  <g id="work-3"><rect x="97" y="33" width="30" height="30" fill="none"/>
    <rect x="108" y="36" width="8" height="8" fill="#5d4e37"/><rect x="110" y="38" width="4" height="4" fill="#ffecb3"/>
    <rect x="106" y="44" width="12" height="14" fill="#6366f1"/><rect x="108" y="46" width="8" height="4" fill="#4f46e5"/>
    <rect x="98" y="44" width="8" height="8" fill="#ffcc80"/><rect x="98" y="36" width="6" height="10" fill="#78716c"/>
    <rect x="106" y="58" width="6" height="6" fill="#374151"/><rect x="112" y="58" width="6" height="6" fill="#374151"/>
  </g>
  <!-- Row 2: Celebrate (arms up, stars) -->
  <g id="celebrate-0"><rect x="1" y="65" width="30" height="30" fill="none"/>
    <rect x="12" y="68" width="8" height="8" fill="#5d4e37"/><rect x="14" y="70" width="4" height="4" fill="#ffecb3"/>
    <rect x="10" y="76" width="12" height="14" fill="#6366f1"/><rect x="12" y="78" width="8" height="4" fill="#4f46e5"/>
    <rect x="20" y="68" width="8" height="6" fill="#ffcc80"/><rect x="2" y="70" width="6" height="6" fill="#ffcc80"/>
    <rect x="14" y="62" width="4" height="4" fill="#fbbf24"/><rect x="22" y="64" width="4" height="4" fill="#34d399"/>
    <rect x="10" y="90" width="6" height="6" fill="#374151"/><rect x="16" y="90" width="6" height="6" fill="#374151"/>
  </g>
  <g id="celebrate-1"><rect x="33" y="65" width="30" height="30" fill="none"/>
    <rect x="44" y="67" width="8" height="8" fill="#5d4e37"/><rect x="46" y="69" width="4" height="4" fill="#ffecb3"/>
    <rect x="42" y="75" width="12" height="14" fill="#6366f1"/><rect x="44" y="77" width="8" height="4" fill="#4f46e5"/>
    <rect x="52" y="67" width="8" height="6" fill="#ffcc80"/><rect x="34" y="69" width="6" height="6" fill="#ffcc80"/>
    <rect x="46" y="61" width="4" height="4" fill="#60a5fa"/><rect x="54" y="63" width="4" height="4" fill="#a78bfa"/>
    <rect x="42" y="89" width="6" height="6" fill="#374151"/><rect x="48" y="89" width="6" height="6" fill="#374151"/>
  </g>
  <g id="celebrate-2"><rect x="65" y="65" width="30" height="30" fill="none"/>
    <rect x="76" y="68" width="8" height="8" fill="#5d4e37"/><rect x="78" y="70" width="4" height="4" fill="#ffecb3"/>
    <rect x="74" y="76" width="12" height="14" fill="#6366f1"/><rect x="76" y="78" width="8" height="4" fill="#4f46e5"/>
    <rect x="84" y="68" width="8" height="6" fill="#ffcc80"/><rect x="66" y="70" width="6" height="6" fill="#ffcc80"/>
    <rect x="78" y="62" width="4" height="4" fill="#f472b6"/><rect x="86" y="64" width="4" height="4" fill="#fbbf24"/>
    <rect x="74" y="90" width="6" height="6" fill="#374151"/><rect x="80" y="90" width="6" height="6" fill="#374151"/>
  </g>
  <g id="celebrate-3"><rect x="97" y="65" width="30" height="30" fill="none"/>
    <rect x="108" y="67" width="8" height="8" fill="#5d4e37"/><rect x="110" y="69" width="4" height="4" fill="#ffecb3"/>
    <rect x="106" y="75" width="12" height="14" fill="#6366f1"/><rect x="108" y="77" width="8" height="4" fill="#4f46e5"/>
    <rect x="116" y="67" width="8" height="6" fill="#ffcc80"/><rect x="98" y="69" width="6" height="6" fill="#ffcc80"/>
    <rect x="110" y="61" width="4" height="4" fill="#34d399"/><rect x="118" y="63" width="4" height="4" fill="#60a5fa"/>
    <rect x="106" y="89" width="6" height="6" fill="#374151"/><rect x="112" y="89" width="6" height="6" fill="#374151"/>
  </g>
  <!-- Row 3: Sleep (eyes closed, zzz) -->
  <g id="sleep-0"><rect x="1" y="97" width="30" height="30" fill="none"/>
    <rect x="12" y="100" width="8" height="8" fill="#5d4e37"/><rect x="14" y="102" width="4" height="4" fill="#ffecb3"/>
    <line x1="14" y1="106" x2="18" y2="106" stroke="#2d2d2d" stroke-width="1"/><line x1="22" y1="106" x2="26" y2="106" stroke="#2d2d2d" stroke-width="1"/>
    <rect x="10" y="108" width="12" height="14" fill="#6366f1"/><rect x="12" y="110" width="8" height="4" fill="#4f46e5"/>
    <rect x="10" y="122" width="6" height="6" fill="#374151"/><rect x="16" y="122" width="6" height="6" fill="#374151"/>
    <text x="24" y="98" font-size="6" fill="#94a3b8" font-family="sans-serif" font-weight="bold">z</text>
  </g>
  <g id="sleep-1"><rect x="33" y="97" width="30" height="30" fill="none"/>
    <rect x="44" y="100" width="8" height="8" fill="#5d4e37"/><rect x="46" y="102" width="4" height="4" fill="#ffecb3"/>
    <line x1="46" y1="106" x2="50" y2="106" stroke="#2d2d2d" stroke-width="1"/><line x1="54" y1="106" x2="58" y2="106" stroke="#2d2d2d" stroke-width="1"/>
    <rect x="42" y="108" width="12" height="14" fill="#6366f1"/><rect x="44" y="110" width="8" height="4" fill="#4f46e5"/>
    <rect x="42" y="122" width="6" height="6" fill="#374151"/><rect x="48" y="122" width="6" height="6" fill="#374151"/>
    <text x="56" y="96" font-size="5" fill="#94a3b8" font-family="sans-serif" font-weight="bold">z</text><text x="60" y="100" font-size="4" fill="#94a3b8" font-family="sans-serif" font-weight="bold">z</text>
  </g>
  <g id="sleep-2"><rect x="65" y="97" width="30" height="30" fill="none"/>
    <rect x="76" y="100" width="8" height="8" fill="#5d4e37"/><rect x="78" y="102" width="4" height="4" fill="#ffecb3"/>
    <line x1="78" y1="106" x2="82" y2="106" stroke="#2d2d2d" stroke-width="1"/><line x1="86" y1="106" x2="90" y2="106" stroke="#2d2d2d" stroke-width="1"/>
    <rect x="74" y="108" width="12" height="14" fill="#6366f1"/><rect x="76" y="110" width="8" height="4" fill="#4f46e5"/>
    <rect x="74" y="122" width="6" height="6" fill="#374151"/><rect x="80" y="122" width="6" height="6" fill="#374151"/>
    <text x="88" y="95" font-size="5" fill="#94a3b8" font-family="sans-serif" font-weight="bold">z</text><text x="92" y="99" font-size="4" fill="#94a3b8" font-family="sans-serif" font-weight="bold">z</text>
  </g>
  <g id="sleep-3"><rect x="97" y="97" width="30" height="30" fill="none"/>
    <rect x="108" y="100" width="8" height="8" fill="#5d4e37"/><rect x="110" y="102" width="4" height="4" fill="#ffecb3"/>
    <line x1="110" y1="106" x2="114" y2="106" stroke="#2d2d2d" stroke-width="1"/><line x1="118" y1="106" x2="122" y2="106" stroke="#2d2d2d" stroke-width="1"/>
    <rect x="106" y="108" width="12" height="14" fill="#6366f1"/><rect x="108" y="110" width="8" height="4" fill="#4f46e5"/>
    <rect x="106" y="122" width="6" height="6" fill="#374151"/><rect x="112" y="122" width="6" height="6" fill="#374151"/>
    <text x="120" y="97" font-size="4" fill="#94a3b8" font-family="sans-serif" font-weight="bold">z</text>
  </g>
</svg>
